<mxfile host="app.diagrams.net" agent="Mozilla/5.0 (Windows NT 10.0; Win64; x64) AppleWebKit/537.36 (KHTML, like Gecko) Chrome/128.0.0.0 Safari/537.36 Edg/128.0.0.0" version="24.7.14">
  <diagram name="Page-1" id="uPfwZ-znYtDra2Bi8w4W">
    <mxGraphModel dx="1426" dy="869" grid="1" gridSize="10" guides="1" tooltips="1" connect="1" arrows="1" fold="1" page="1" pageScale="1" pageWidth="1169" pageHeight="827" math="0" shadow="0">
      <root>
        <mxCell id="0" />
        <mxCell id="1" parent="0" />
        <mxCell id="4L4tFv618WuATQfolhGo-1" value="Romvesen" style="whiteSpace=wrap;html=1;align=center;" parent="1" vertex="1">
          <mxGeometry x="134" y="163" width="100" height="40" as="geometry" />
        </mxCell>
        <mxCell id="4L4tFv618WuATQfolhGo-2" value="Navn" style="ellipse;whiteSpace=wrap;html=1;align=center;fontStyle=4;" parent="1" vertex="1">
          <mxGeometry x="84" y="93" width="100" height="40" as="geometry" />
        </mxCell>
        <mxCell id="4L4tFv618WuATQfolhGo-3" value="" style="endArrow=none;html=1;rounded=0;exitX=0.5;exitY=1;exitDx=0;exitDy=0;entryX=0.5;entryY=0;entryDx=0;entryDy=0;" parent="1" source="4L4tFv618WuATQfolhGo-2" target="4L4tFv618WuATQfolhGo-1" edge="1">
          <mxGeometry relative="1" as="geometry">
            <mxPoint x="364" y="123" as="sourcePoint" />
            <mxPoint x="524" y="123" as="targetPoint" />
          </mxGeometry>
        </mxCell>
        <mxCell id="4L4tFv618WuATQfolhGo-5" value="Lyd" style="ellipse;whiteSpace=wrap;html=1;align=center;fontStyle=4;" parent="1" vertex="1">
          <mxGeometry x="214" y="93" width="100" height="40" as="geometry" />
        </mxCell>
        <mxCell id="4L4tFv618WuATQfolhGo-6" value="" style="endArrow=none;html=1;rounded=0;exitX=0.5;exitY=1;exitDx=0;exitDy=0;entryX=0.5;entryY=0;entryDx=0;entryDy=0;" parent="1" source="4L4tFv618WuATQfolhGo-5" target="4L4tFv618WuATQfolhGo-1" edge="1">
          <mxGeometry relative="1" as="geometry">
            <mxPoint x="364" y="63" as="sourcePoint" />
            <mxPoint x="524" y="63" as="targetPoint" />
          </mxGeometry>
        </mxCell>
        <mxCell id="4L4tFv618WuATQfolhGo-7" value="Beskrivelse" style="ellipse;whiteSpace=wrap;html=1;align=center;" parent="1" vertex="1">
          <mxGeometry x="10" y="163" width="100" height="40" as="geometry" />
        </mxCell>
        <mxCell id="4L4tFv618WuATQfolhGo-8" value="" style="endArrow=none;html=1;rounded=0;exitX=1;exitY=0.5;exitDx=0;exitDy=0;entryX=0;entryY=0.5;entryDx=0;entryDy=0;" parent="1" source="4L4tFv618WuATQfolhGo-7" target="4L4tFv618WuATQfolhGo-1" edge="1">
          <mxGeometry relative="1" as="geometry">
            <mxPoint x="300" y="30" as="sourcePoint" />
            <mxPoint x="120" y="183" as="targetPoint" />
          </mxGeometry>
        </mxCell>
        <mxCell id="4L4tFv618WuATQfolhGo-9" value="Starttone" style="ellipse;whiteSpace=wrap;html=1;align=center;" parent="1" vertex="1">
          <mxGeometry x="150" y="20" width="100" height="40" as="geometry" />
        </mxCell>
        <mxCell id="4L4tFv618WuATQfolhGo-10" value="Gurglelyd" style="ellipse;whiteSpace=wrap;html=1;align=center;" parent="1" vertex="1">
          <mxGeometry x="290" y="20" width="100" height="40" as="geometry" />
        </mxCell>
        <mxCell id="4L4tFv618WuATQfolhGo-11" value="" style="endArrow=none;html=1;rounded=0;exitX=0.5;exitY=1;exitDx=0;exitDy=0;entryX=0.5;entryY=0;entryDx=0;entryDy=0;" parent="1" source="4L4tFv618WuATQfolhGo-9" target="4L4tFv618WuATQfolhGo-5" edge="1">
          <mxGeometry relative="1" as="geometry">
            <mxPoint x="110" y="30" as="sourcePoint" />
            <mxPoint x="270" y="30" as="targetPoint" />
          </mxGeometry>
        </mxCell>
        <mxCell id="4L4tFv618WuATQfolhGo-12" value="" style="endArrow=none;html=1;rounded=0;exitX=0.5;exitY=1;exitDx=0;exitDy=0;entryX=0.5;entryY=0;entryDx=0;entryDy=0;" parent="1" source="4L4tFv618WuATQfolhGo-10" target="4L4tFv618WuATQfolhGo-5" edge="1">
          <mxGeometry relative="1" as="geometry">
            <mxPoint x="110" y="30" as="sourcePoint" />
            <mxPoint x="270" y="30" as="targetPoint" />
          </mxGeometry>
        </mxCell>
        <mxCell id="4L4tFv618WuATQfolhGo-13" value="" style="shape=link;html=1;rounded=0;exitX=1;exitY=0.5;exitDx=0;exitDy=0;" parent="1" source="4L4tFv618WuATQfolhGo-1" edge="1">
          <mxGeometry relative="1" as="geometry">
            <mxPoint x="290" y="202" as="sourcePoint" />
            <mxPoint x="350" y="183" as="targetPoint" />
          </mxGeometry>
        </mxCell>
        <mxCell id="4L4tFv618WuATQfolhGo-14" value="N" style="resizable=0;html=1;whiteSpace=wrap;align=right;verticalAlign=bottom;" parent="4L4tFv618WuATQfolhGo-13" connectable="0" vertex="1">
          <mxGeometry x="1" relative="1" as="geometry">
            <mxPoint x="-100" as="offset" />
          </mxGeometry>
        </mxCell>
        <mxCell id="4L4tFv618WuATQfolhGo-15" value="Med i" style="shape=rhombus;perimeter=rhombusPerimeter;whiteSpace=wrap;html=1;align=center;" parent="1" vertex="1">
          <mxGeometry x="348" y="153" width="120" height="60" as="geometry" />
        </mxCell>
        <mxCell id="4L4tFv618WuATQfolhGo-17" value="" style="shape=link;html=1;rounded=0;exitX=1;exitY=0.5;exitDx=0;exitDy=0;entryX=0;entryY=0.5;entryDx=0;entryDy=0;" parent="1" source="4L4tFv618WuATQfolhGo-15" target="4L4tFv618WuATQfolhGo-19" edge="1">
          <mxGeometry relative="1" as="geometry">
            <mxPoint x="480" y="182.5" as="sourcePoint" />
            <mxPoint x="540" y="183" as="targetPoint" />
          </mxGeometry>
        </mxCell>
        <mxCell id="4L4tFv618WuATQfolhGo-18" value="1" style="resizable=0;html=1;whiteSpace=wrap;align=right;verticalAlign=bottom;" parent="4L4tFv618WuATQfolhGo-17" connectable="0" vertex="1">
          <mxGeometry x="1" relative="1" as="geometry" />
        </mxCell>
        <mxCell id="4L4tFv618WuATQfolhGo-19" value="Gruppe" style="whiteSpace=wrap;html=1;align=center;" parent="1" vertex="1">
          <mxGeometry x="550" y="163" width="100" height="40" as="geometry" />
        </mxCell>
        <mxCell id="4L4tFv618WuATQfolhGo-20" value="ID" style="ellipse;whiteSpace=wrap;html=1;align=center;fontStyle=4;" parent="1" vertex="1">
          <mxGeometry x="450" y="70" width="100" height="40" as="geometry" />
        </mxCell>
        <mxCell id="4L4tFv618WuATQfolhGo-22" value="" style="endArrow=none;html=1;rounded=0;exitX=0.5;exitY=1;exitDx=0;exitDy=0;entryX=0.5;entryY=0;entryDx=0;entryDy=0;" parent="1" source="4L4tFv618WuATQfolhGo-20" target="4L4tFv618WuATQfolhGo-19" edge="1">
          <mxGeometry relative="1" as="geometry">
            <mxPoint x="370" y="230" as="sourcePoint" />
            <mxPoint x="530" y="230" as="targetPoint" />
          </mxGeometry>
        </mxCell>
        <mxCell id="4L4tFv618WuATQfolhGo-23" value="Symbol" style="ellipse;whiteSpace=wrap;html=1;align=center;" parent="1" vertex="1">
          <mxGeometry x="585" y="70" width="100" height="40" as="geometry" />
        </mxCell>
        <mxCell id="4L4tFv618WuATQfolhGo-24" value="" style="endArrow=none;html=1;rounded=0;entryX=0.5;entryY=1;entryDx=0;entryDy=0;exitX=0.5;exitY=0;exitDx=0;exitDy=0;" parent="1" source="4L4tFv618WuATQfolhGo-19" target="4L4tFv618WuATQfolhGo-23" edge="1">
          <mxGeometry relative="1" as="geometry">
            <mxPoint x="370" y="230" as="sourcePoint" />
            <mxPoint x="530" y="230" as="targetPoint" />
          </mxGeometry>
        </mxCell>
        <mxCell id="4L4tFv618WuATQfolhGo-27" value="Er leder" style="shape=rhombus;perimeter=rhombusPerimeter;whiteSpace=wrap;html=1;align=center;" parent="1" vertex="1">
          <mxGeometry x="348" y="240" width="120" height="60" as="geometry" />
        </mxCell>
        <mxCell id="4L4tFv618WuATQfolhGo-29" value="" style="endArrow=none;html=1;rounded=0;exitX=0.5;exitY=1;exitDx=0;exitDy=0;entryX=0;entryY=0;entryDx=0;entryDy=0;" parent="1" source="4L4tFv618WuATQfolhGo-1" target="4L4tFv618WuATQfolhGo-27" edge="1">
          <mxGeometry relative="1" as="geometry">
            <mxPoint x="270" y="230" as="sourcePoint" />
            <mxPoint x="430" y="230" as="targetPoint" />
          </mxGeometry>
        </mxCell>
        <mxCell id="4L4tFv618WuATQfolhGo-30" value="" style="shape=link;html=1;rounded=0;entryX=0;entryY=1;entryDx=0;entryDy=0;exitX=1;exitY=0;exitDx=0;exitDy=0;" parent="1" source="4L4tFv618WuATQfolhGo-27" target="4L4tFv618WuATQfolhGo-19" edge="1">
          <mxGeometry relative="1" as="geometry">
            <mxPoint x="450" y="260" as="sourcePoint" />
            <mxPoint x="610" y="260" as="targetPoint" />
          </mxGeometry>
        </mxCell>
        <mxCell id="4L4tFv618WuATQfolhGo-31" value="1" style="resizable=0;html=1;whiteSpace=wrap;align=right;verticalAlign=bottom;" parent="4L4tFv618WuATQfolhGo-30" connectable="0" vertex="1">
          <mxGeometry x="1" relative="1" as="geometry" />
        </mxCell>
        <mxCell id="4L4tFv618WuATQfolhGo-32" value="1" style="resizable=0;html=1;whiteSpace=wrap;align=right;verticalAlign=bottom;" parent="1" connectable="0" vertex="1">
          <mxGeometry x="183.99949504762884" y="230.0023772993152" as="geometry" />
        </mxCell>
        <mxCell id="4L4tFv618WuATQfolhGo-33" value="Romskip" style="whiteSpace=wrap;html=1;align=center;" parent="1" vertex="1">
          <mxGeometry x="550" y="414" width="100" height="40" as="geometry" />
        </mxCell>
        <mxCell id="4L4tFv618WuATQfolhGo-34" value="Serienr" style="ellipse;whiteSpace=wrap;html=1;align=center;fontStyle=4;" parent="1" vertex="1">
          <mxGeometry x="470" y="540" width="100" height="40" as="geometry" />
        </mxCell>
        <mxCell id="4L4tFv618WuATQfolhGo-35" value="" style="endArrow=none;html=1;rounded=0;exitX=0.5;exitY=0;exitDx=0;exitDy=0;entryX=0.25;entryY=1;entryDx=0;entryDy=0;" parent="1" source="4L4tFv618WuATQfolhGo-34" target="4L4tFv618WuATQfolhGo-33" edge="1">
          <mxGeometry relative="1" as="geometry">
            <mxPoint x="290" y="370" as="sourcePoint" />
            <mxPoint x="450" y="370" as="targetPoint" />
          </mxGeometry>
        </mxCell>
        <mxCell id="4L4tFv618WuATQfolhGo-36" value="Kapasitet" style="ellipse;whiteSpace=wrap;html=1;align=center;" parent="1" vertex="1">
          <mxGeometry x="620" y="540" width="100" height="40" as="geometry" />
        </mxCell>
        <mxCell id="4L4tFv618WuATQfolhGo-37" value="" style="endArrow=none;html=1;rounded=0;entryX=0.75;entryY=1;entryDx=0;entryDy=0;exitX=0.5;exitY=0;exitDx=0;exitDy=0;" parent="1" source="4L4tFv618WuATQfolhGo-36" target="4L4tFv618WuATQfolhGo-33" edge="1">
          <mxGeometry relative="1" as="geometry">
            <mxPoint x="290" y="370" as="sourcePoint" />
            <mxPoint x="450" y="370" as="targetPoint" />
          </mxGeometry>
        </mxCell>
        <mxCell id="4L4tFv618WuATQfolhGo-41" value="" style="endArrow=none;html=1;rounded=0;exitX=1;exitY=0.5;exitDx=0;exitDy=0;entryX=0;entryY=0.5;entryDx=0;entryDy=0;" parent="1" edge="1">
          <mxGeometry relative="1" as="geometry">
            <mxPoint x="830" y="310" as="sourcePoint" />
            <mxPoint x="900" y="310" as="targetPoint" />
          </mxGeometry>
        </mxCell>
        <mxCell id="4L4tFv618WuATQfolhGo-42" value="Utfører" style="shape=rhombus;double=1;perimeter=rhombusPerimeter;whiteSpace=wrap;html=1;align=center;" parent="1" vertex="1">
          <mxGeometry x="540" y="280" width="120" height="60" as="geometry" />
        </mxCell>
        <mxCell id="L4qVHO0ndusxt3Lv3Z8y-1" value="" style="shape=link;html=1;rounded=0;exitX=0.5;exitY=1;exitDx=0;exitDy=0;entryX=0.5;entryY=0;entryDx=0;entryDy=0;" edge="1" parent="1" source="4L4tFv618WuATQfolhGo-19" target="4L4tFv618WuATQfolhGo-42">
          <mxGeometry width="100" relative="1" as="geometry">
            <mxPoint x="530" y="250" as="sourcePoint" />
            <mxPoint x="630" y="250" as="targetPoint" />
          </mxGeometry>
        </mxCell>
        <mxCell id="L4qVHO0ndusxt3Lv3Z8y-2" value="" style="shape=link;html=1;rounded=0;exitX=0.5;exitY=1;exitDx=0;exitDy=0;entryX=0.5;entryY=0;entryDx=0;entryDy=0;" edge="1" parent="1" source="4L4tFv618WuATQfolhGo-42" target="4L4tFv618WuATQfolhGo-33">
          <mxGeometry relative="1" as="geometry">
            <mxPoint x="500" y="290" as="sourcePoint" />
            <mxPoint x="660" y="290" as="targetPoint" />
          </mxGeometry>
        </mxCell>
        <mxCell id="L4qVHO0ndusxt3Lv3Z8y-3" value="1" style="resizable=0;html=1;whiteSpace=wrap;align=right;verticalAlign=bottom;" connectable="0" vertex="1" parent="L4qVHO0ndusxt3Lv3Z8y-2">
          <mxGeometry x="1" relative="1" as="geometry" />
        </mxCell>
        <mxCell id="L4qVHO0ndusxt3Lv3Z8y-6" value="" style="shape=link;html=1;rounded=0;entryX=0;entryY=0.5;entryDx=0;entryDy=0;" edge="1" parent="1">
          <mxGeometry relative="1" as="geometry">
            <mxPoint x="660" y="310" as="sourcePoint" />
            <mxPoint x="730" y="310" as="targetPoint" />
          </mxGeometry>
        </mxCell>
        <mxCell id="L4qVHO0ndusxt3Lv3Z8y-7" value="1" style="resizable=0;html=1;whiteSpace=wrap;align=right;verticalAlign=bottom;" connectable="0" vertex="1" parent="L4qVHO0ndusxt3Lv3Z8y-6">
          <mxGeometry x="1" relative="1" as="geometry" />
        </mxCell>
        <mxCell id="L4qVHO0ndusxt3Lv3Z8y-8" value="Funksjon" style="shape=ext;margin=3;double=1;whiteSpace=wrap;html=1;align=center;" vertex="1" parent="1">
          <mxGeometry x="730" y="290" width="100" height="40" as="geometry" />
        </mxCell>
        <mxCell id="L4qVHO0ndusxt3Lv3Z8y-9" value="&lt;span style=&quot;border-bottom: 1px dotted&quot;&gt;Navn&lt;/span&gt;" style="ellipse;whiteSpace=wrap;html=1;align=center;" vertex="1" parent="1">
          <mxGeometry x="900" y="290" width="100" height="40" as="geometry" />
        </mxCell>
        <mxCell id="L4qVHO0ndusxt3Lv3Z8y-10" value="M" style="text;html=1;align=center;verticalAlign=middle;resizable=0;points=[];autosize=1;strokeColor=none;fillColor=none;" vertex="1" parent="1">
          <mxGeometry x="605" y="198" width="30" height="30" as="geometry" />
        </mxCell>
      </root>
    </mxGraphModel>
  </diagram>
</mxfile>
